<?xml version="1.0" encoding="UTF-8"?>
<svg xmlns="http://www.w3.org/2000/svg" version="1.1" viewBox="0 0 21 20">
  <defs>
    <style>
      .cls-1 {
        fill: #2d2d2d;
      }

      .cls-2 {
        fill: #fff;
      }
    </style>
  </defs>
  <!-- Generator: Adobe Illustrator 28.7.1, SVG Export Plug-In . SVG Version: 1.2.0 Build 142)  -->
  <g>
    <g id="_레이어_1" data-name="레이어_1">
      <g id="icon20">
        <path id="Rectangle_414" class="cls-2" d="M10.6,17.9h0c4.4,0,8-3.6,8-8h0c0-4.4-3.6-8-8-8h0C6.2,1.9,2.6,5.5,2.6,9.9h0c0,4.4,3.6,8,8,8Z"/>
        <rect id="Rectangle_412" class="cls-2" x="9.8" y="9.1" width="1.7" height="5"/>
        <rect id="Rectangle_415" class="cls-2" x="8.9" y="9.1" width="1.7" height=".8"/>
        <rect id="Rectangle_416" class="cls-2" x="8.9" y="13.3" width="3.3" height=".8"/>
        <circle id="Ellipse_453" class="cls-2" cx="10.4" cy="6.8" r="1"/>
      </g>
      <ellipse class="cls-2" cx="10.5" cy="10" rx="3.9" ry="5.6"/>
      <path class="cls-1" d="M9.5,12.2c0-.5,0-.9.2-1.2.1-.3.3-.6.5-.9.2-.3.4-.5.5-.7s.3-.4.5-.7c.1-.2.2-.5.2-.8h0c0-.3,0-.6-.2-.8-.2-.2-.4-.3-.7-.3s-.5.1-.7.3c-.2.2-.2.5-.3.9h0s-1.6,0-1.6,0h0c0-.8.3-1.5.7-2s1-.7,1.8-.7,1.4.2,1.9.6c.4.4.7,1,.7,1.7h0c0,.3,0,.6-.1.9,0,.3-.2.5-.3.7-.1.2-.3.4-.5.6-.2.2-.3.4-.5.6-.1.2-.3.4-.3.7,0,.3-.1.6-.1.9h-1.5ZM9.5,14.7v-1.5h1.5v1.5h-1.5Z"/>
    </g>
  </g>
</svg>