<svg width="24" height="25" viewBox="0 0 24 25" fill="none" xmlns="http://www.w3.org/2000/svg">
<path d="M16.1667 11.6667H12.8333V8.33333C12.8333 8.11232 12.7455 7.90036 12.5893 7.74408C12.433 7.5878 12.221 7.5 12 7.5C11.779 7.5 11.567 7.5878 11.4107 7.74408C11.2545 7.90036 11.1667 8.11232 11.1667 8.33333V11.6667H7.83333C7.61232 11.6667 7.40036 11.7545 7.24408 11.9107C7.0878 12.067 7 12.279 7 12.5C7 12.721 7.0878 12.933 7.24408 13.0893C7.40036 13.2455 7.61232 13.3333 7.83333 13.3333H11.1667V16.6667C11.1667 16.8877 11.2545 17.0996 11.4107 17.2559C11.567 17.4122 11.779 17.5 12 17.5C12.221 17.5 12.433 17.4122 12.5893 17.2559C12.7455 17.0996 12.8333 16.8877 12.8333 16.6667V13.3333H16.1667C16.3877 13.3333 16.5996 13.2455 16.7559 13.0893C16.9122 12.933 17 12.721 17 12.5C17 12.279 16.9122 12.067 16.7559 11.9107C16.5996 11.7545 16.3877 11.6667 16.1667 11.6667Z" fill="#495057"/>
</svg>
