<svg width="24" height="24" viewBox="0 0 24 24" fill="none" xmlns="http://www.w3.org/2000/svg">
<path d="M3 9.1198C3 7.60766 3 6.85159 3.32698 6.27403C3.6146 5.76599 4.07354 5.35294 4.63803 5.09409C5.27976 4.7998 6.11984 4.7998 7.8 4.7998H16.2C17.8802 4.7998 18.7202 4.7998 19.362 5.09409C19.9265 5.35294 20.3854 5.76599 20.673 6.27403C21 6.85159 21 7.60766 21 9.1198V16.6798C21 18.1919 21 18.948 20.673 19.5256C20.3854 20.0336 19.9265 20.4467 19.362 20.7055C18.7202 20.9998 17.8802 20.9998 16.2 20.9998H7.8C6.11984 20.9998 5.27976 20.9998 4.63803 20.7055C4.07354 20.4467 3.6146 20.0336 3.32698 19.5256C3 18.948 3 18.1919 3 16.6798V9.1198Z" stroke="#171B22" stroke-width="2" stroke-linecap="round" stroke-linejoin="round"/>
<path d="M21 11H3" stroke="#171B22" stroke-width="2" stroke-linecap="round" stroke-linejoin="round"/>
<path d="M8 3V6" stroke="#171B22" stroke-width="2" stroke-linecap="round" stroke-linejoin="round"/>
<path d="M16 3V6" stroke="#171B22" stroke-width="2" stroke-linecap="round" stroke-linejoin="round"/>
</svg>
