<svg width="105" height="38" viewBox="0 0 105 38" fill="none" xmlns="http://www.w3.org/2000/svg">
<path d="M7.074 13.412H9.45V15.806H7.074V13.412ZM0.774 12.008H15.768V13.754H0.774V12.008ZM7.056 4.916H9.45V6.914H7.056V4.916ZM6.912 7.022H9.018V7.364C9.018 7.964 8.868 8.51 8.568 9.002C8.268 9.482 7.824 9.908 7.236 10.28C6.648 10.64 5.916 10.934 5.04 11.162C4.164 11.378 3.15 11.516 1.998 11.576L1.332 9.812C2.352 9.764 3.216 9.668 3.924 9.524C4.632 9.368 5.202 9.182 5.634 8.966C6.078 8.738 6.402 8.486 6.606 8.21C6.81 7.934 6.912 7.652 6.912 7.364V7.022ZM7.488 7.022H9.594V7.364C9.594 7.652 9.69 7.934 9.882 8.21C10.086 8.486 10.41 8.738 10.854 8.966C11.298 9.182 11.874 9.368 12.582 9.524C13.302 9.668 14.166 9.764 15.174 9.812L14.508 11.576C13.356 11.516 12.342 11.378 11.466 11.162C10.59 10.934 9.858 10.64 9.27 10.28C8.682 9.908 8.238 9.482 7.938 9.002C7.638 8.51 7.488 7.964 7.488 7.364V7.022ZM2.16 6.212H14.346V7.958H2.16V6.212ZM2.448 14.762H13.968V18.884H4.842V20.468H2.466V17.282H11.61V16.472H2.448V14.762ZM2.466 19.748H14.418V21.494H2.466V19.748ZM28.7446 4.934H31.1386V13.88H28.7446V4.934ZM20.0686 14.618H22.4266V16.166H28.7626V14.618H31.1386V21.422H20.0686V14.618ZM22.4266 18.002V19.514H28.7626V18.002H22.4266ZM22.0666 5.618C22.9306 5.618 23.7046 5.786 24.3886 6.122C25.0726 6.458 25.6126 6.92 26.0086 7.508C26.4046 8.096 26.6026 8.774 26.6026 9.542C26.6026 10.31 26.4046 10.994 26.0086 11.594C25.6126 12.182 25.0726 12.644 24.3886 12.98C23.7046 13.316 22.9306 13.484 22.0666 13.484C21.2026 13.484 20.4286 13.316 19.7446 12.98C19.0606 12.644 18.5206 12.182 18.1246 11.594C17.7286 10.994 17.5306 10.31 17.5306 9.542C17.5306 8.774 17.7286 8.096 18.1246 7.508C18.5206 6.92 19.0606 6.458 19.7446 6.122C20.4286 5.786 21.2026 5.618 22.0666 5.618ZM22.0666 7.58C21.6466 7.58 21.2686 7.658 20.9326 7.814C20.5966 7.97 20.3326 8.198 20.1406 8.498C19.9606 8.786 19.8706 9.134 19.8706 9.542C19.8706 9.962 19.9606 10.322 20.1406 10.622C20.3326 10.91 20.5966 11.132 20.9326 11.288C21.2686 11.432 21.6466 11.504 22.0666 11.504C22.4866 11.504 22.8586 11.432 23.1826 11.288C23.5186 11.132 23.7826 10.91 23.9746 10.622C24.1666 10.322 24.2626 9.962 24.2626 9.542C24.2626 9.134 24.1666 8.786 23.9746 8.498C23.7826 8.198 23.5186 7.97 23.1826 7.814C22.8586 7.658 22.4866 7.58 22.0666 7.58ZM33.8192 13.502H48.9032V15.374H33.8192V13.502ZM40.1732 11.738H42.5492V14.204H40.1732V11.738ZM35.7092 10.676H47.3192V12.494H35.7092V10.676ZM35.7092 5.348H47.1752V7.166H38.0852V11.72H35.7092V5.348ZM37.4012 8.03H46.8152V9.776H37.4012V8.03ZM41.3432 16.13C43.1792 16.13 44.6012 16.364 45.6092 16.832C46.6292 17.3 47.1392 17.978 47.1392 18.866C47.1392 19.754 46.6292 20.432 45.6092 20.9C44.6012 21.368 43.1792 21.602 41.3432 21.602C39.5192 21.602 38.0972 21.368 37.0772 20.9C36.0692 20.432 35.5652 19.754 35.5652 18.866C35.5652 17.978 36.0692 17.3 37.0772 16.832C38.0972 16.364 39.5192 16.13 41.3432 16.13ZM41.3432 17.876C40.1912 17.876 39.3392 17.954 38.7872 18.11C38.2352 18.266 37.9592 18.518 37.9592 18.866C37.9592 19.214 38.2352 19.466 38.7872 19.622C39.3392 19.766 40.1912 19.838 41.3432 19.838C42.4952 19.838 43.3472 19.766 43.8992 19.622C44.4512 19.466 44.7272 19.214 44.7272 18.866C44.7272 18.518 44.4512 18.266 43.8992 18.11C43.3472 17.954 42.4952 17.876 41.3432 17.876ZM62.4378 4.916H64.7238V21.584H62.4378V4.916ZM56.9478 10.622H59.7198V12.566H56.9478V10.622ZM59.0718 5.186H61.3038V20.828H59.0718V5.186ZM53.3658 7.634H55.1658V9.344C55.1658 10.28 55.0938 11.204 54.9498 12.116C54.8178 13.028 54.6078 13.892 54.3198 14.708C54.0318 15.512 53.6538 16.238 53.1858 16.886C52.7178 17.534 52.1538 18.068 51.4938 18.488L50.0718 16.724C50.8878 16.208 51.5358 15.56 52.0158 14.78C52.4958 13.988 52.8378 13.124 53.0418 12.188C53.2578 11.24 53.3658 10.292 53.3658 9.344V7.634ZM53.9058 7.634H55.6878V9.344C55.6878 10.268 55.7898 11.18 55.9938 12.08C56.1978 12.98 56.5338 13.802 57.0018 14.546C57.4698 15.278 58.1058 15.878 58.9098 16.346L57.5238 18.074C56.6358 17.546 55.9278 16.832 55.3998 15.932C54.8718 15.032 54.4878 14.018 54.2478 12.89C54.0198 11.75 53.9058 10.568 53.9058 9.344V7.634ZM50.6838 6.59H58.1178V8.516H50.6838V6.59ZM78.4342 11.234H81.0622V13.178H78.4342V11.234ZM74.5462 9.56H76.3642V9.992C76.3642 10.856 76.2922 11.714 76.1482 12.566C76.0162 13.406 75.8002 14.204 75.5002 14.96C75.2122 15.704 74.8342 16.382 74.3662 16.994C73.9102 17.594 73.3462 18.086 72.6742 18.47L71.3422 16.67C71.9302 16.322 72.4282 15.902 72.8362 15.41C73.2442 14.906 73.5742 14.36 73.8262 13.772C74.0902 13.172 74.2762 12.554 74.3842 11.918C74.4922 11.27 74.5462 10.628 74.5462 9.992V9.56ZM75.0142 9.56H76.8322V9.992C76.8322 10.604 76.8862 11.222 76.9942 11.846C77.1142 12.47 77.3002 13.058 77.5522 13.61C77.8042 14.162 78.1342 14.672 78.5422 15.14C78.9502 15.596 79.4482 15.98 80.0362 16.292L78.7402 18.074C77.8522 17.606 77.1322 16.958 76.5802 16.13C76.0282 15.29 75.6262 14.342 75.3742 13.286C75.1342 12.218 75.0142 11.12 75.0142 9.992V9.56ZM71.9542 7.724H79.3882V9.65H71.9542V7.724ZM74.5462 5.474H76.8322V9.272H74.5462V5.474ZM83.6722 4.916H85.9582V21.584H83.6722V4.916ZM80.3062 5.186H82.5382V20.828H80.3062V5.186ZM94.6328 9.326H97.9988V11.216H94.6328V9.326ZM94.5428 13.484H97.9448V15.392H94.5428V13.484ZM100.267 4.916H102.553V21.584H100.267V4.916ZM96.8468 5.276H99.0788V20.846H96.8468V5.276ZM93.0848 6.878H95.3708C95.3708 8.462 95.1848 9.938 94.8128 11.306C94.4528 12.662 93.8288 13.91 92.9408 15.05C92.0648 16.19 90.8528 17.216 89.3048 18.128L87.9548 16.454C89.2147 15.698 90.2168 14.876 90.9608 13.988C91.7168 13.088 92.2568 12.098 92.5808 11.018C92.9168 9.926 93.0848 8.708 93.0848 7.364V6.878ZM88.9088 6.878H93.8768V8.804H88.9088V6.878Z" fill="#F8F134"/>
<path d="M6.45 34L5.59 31.79H2.76L1.91 34H1L3.79 26.83H4.6L7.38 34H6.45ZM4.52 28.83C4.5 28.7767 4.46667 28.68 4.42 28.54C4.37333 28.4 4.32667 28.2567 4.28 28.11C4.24 27.9567 4.20667 27.84 4.18 27.76C4.14667 27.8933 4.11 28.03 4.07 28.17C4.03667 28.3033 4 28.4267 3.96 28.54C3.92667 28.6533 3.89667 28.75 3.87 28.83L3.06 30.99H5.32L4.52 28.83ZM10.2867 34.1C9.81339 34.1 9.39005 34.0033 9.01672 33.81C8.65005 33.6167 8.36005 33.3167 8.14672 32.91C7.94005 32.5033 7.83672 31.9833 7.83672 31.35C7.83672 30.69 7.94672 30.1533 8.16672 29.74C8.38672 29.3267 8.68339 29.0233 9.05672 28.83C9.43672 28.6367 9.86672 28.54 10.3467 28.54C10.6201 28.54 10.8834 28.57 11.1367 28.63C11.3901 28.6833 11.5967 28.75 11.7567 28.83L11.4867 29.56C11.3267 29.5 11.1401 29.4433 10.9267 29.39C10.7134 29.3367 10.5134 29.31 10.3267 29.31C9.96672 29.31 9.67005 29.3867 9.43672 29.54C9.20339 29.6933 9.03005 29.92 8.91672 30.22C8.80339 30.52 8.74672 30.8933 8.74672 31.34C8.74672 31.7667 8.80339 32.13 8.91672 32.43C9.03005 32.73 9.20005 32.9567 9.42672 33.11C9.65339 33.2633 9.93672 33.34 10.2767 33.34C10.5701 33.34 10.8267 33.31 11.0467 33.25C11.2734 33.19 11.4801 33.1167 11.6667 33.03V33.81C11.4867 33.9033 11.2867 33.9733 11.0667 34.02C10.8534 34.0733 10.5934 34.1 10.2867 34.1ZM14.9914 34.1C14.5181 34.1 14.0947 34.0033 13.7214 33.81C13.3547 33.6167 13.0647 33.3167 12.8514 32.91C12.6447 32.5033 12.5414 31.9833 12.5414 31.35C12.5414 30.69 12.6514 30.1533 12.8714 29.74C13.0914 29.3267 13.3881 29.0233 13.7614 28.83C14.1414 28.6367 14.5714 28.54 15.0514 28.54C15.3247 28.54 15.5881 28.57 15.8414 28.63C16.0947 28.6833 16.3014 28.75 16.4614 28.83L16.1914 29.56C16.0314 29.5 15.8447 29.4433 15.6314 29.39C15.4181 29.3367 15.2181 29.31 15.0314 29.31C14.6714 29.31 14.3747 29.3867 14.1414 29.54C13.9081 29.6933 13.7347 29.92 13.6214 30.22C13.5081 30.52 13.4514 30.8933 13.4514 31.34C13.4514 31.7667 13.5081 32.13 13.6214 32.43C13.7347 32.73 13.9047 32.9567 14.1314 33.11C14.3581 33.2633 14.6414 33.34 14.9814 33.34C15.2747 33.34 15.5314 33.31 15.7514 33.25C15.9781 33.19 16.1847 33.1167 16.3714 33.03V33.81C16.1914 33.9033 15.9914 33.9733 15.7714 34.02C15.5581 34.0733 15.2981 34.1 14.9914 34.1ZM19.6161 28.54C20.0761 28.54 20.4694 28.64 20.7961 28.84C21.1294 29.04 21.3828 29.3233 21.5561 29.69C21.7361 30.05 21.8261 30.4733 21.8261 30.96V31.49H18.1561C18.1694 32.0967 18.3228 32.56 18.6161 32.88C18.9161 33.1933 19.3328 33.35 19.8661 33.35C20.2061 33.35 20.5061 33.32 20.7661 33.26C21.0328 33.1933 21.3061 33.1 21.5861 32.98V33.75C21.3128 33.87 21.0428 33.9567 20.7761 34.01C20.5094 34.07 20.1928 34.1 19.8261 34.1C19.3194 34.1 18.8694 33.9967 18.4761 33.79C18.0894 33.5833 17.7861 33.2767 17.5661 32.87C17.3528 32.4567 17.2461 31.9533 17.2461 31.36C17.2461 30.7733 17.3428 30.27 17.5361 29.85C17.7361 29.43 18.0128 29.1067 18.3661 28.88C18.7261 28.6533 19.1428 28.54 19.6161 28.54ZM19.6061 29.26C19.1861 29.26 18.8528 29.3967 18.6061 29.67C18.3661 29.9367 18.2228 30.31 18.1761 30.79H20.9061C20.9061 30.4833 20.8594 30.2167 20.7661 29.99C20.6728 29.7633 20.5294 29.5867 20.3361 29.46C20.1494 29.3267 19.9061 29.26 19.6061 29.26ZM26.5806 32.52C26.5806 32.8667 26.494 33.1567 26.3206 33.39C26.1473 33.6233 25.9006 33.8 25.5806 33.92C25.2606 34.04 24.8806 34.1 24.4406 34.1C24.0673 34.1 23.744 34.07 23.4706 34.01C23.204 33.95 22.9673 33.8667 22.7606 33.76V32.96C22.974 33.0667 23.2306 33.1667 23.5306 33.26C23.8373 33.3467 24.1473 33.39 24.4606 33.39C24.9073 33.39 25.2306 33.32 25.4306 33.18C25.6306 33.0333 25.7306 32.84 25.7306 32.6C25.7306 32.4667 25.694 32.3467 25.6206 32.24C25.5473 32.1333 25.414 32.0267 25.2206 31.92C25.034 31.8133 24.764 31.6933 24.4106 31.56C24.064 31.4267 23.7673 31.2933 23.5206 31.16C23.274 31.0267 23.084 30.8667 22.9506 30.68C22.8173 30.4933 22.7506 30.2533 22.7506 29.96C22.7506 29.5067 22.934 29.1567 23.3006 28.91C23.674 28.6633 24.1606 28.54 24.7606 28.54C25.0873 28.54 25.3906 28.5733 25.6706 28.64C25.9573 28.7 26.224 28.7867 26.4706 28.9L26.1706 29.6C26.024 29.5333 25.8673 29.4767 25.7006 29.43C25.5406 29.3767 25.3773 29.3367 25.2106 29.31C25.044 29.2767 24.874 29.26 24.7006 29.26C24.3406 29.26 24.064 29.32 23.8706 29.44C23.684 29.5533 23.5906 29.71 23.5906 29.91C23.5906 30.0567 23.634 30.1833 23.7206 30.29C23.8073 30.39 23.9506 30.49 24.1506 30.59C24.3573 30.6833 24.6306 30.7967 24.9706 30.93C25.3106 31.0567 25.6006 31.1867 25.8406 31.32C26.0806 31.4533 26.264 31.6167 26.3906 31.81C26.5173 31.9967 26.5806 32.2333 26.5806 32.52ZM31.2658 32.52C31.2658 32.8667 31.1791 33.1567 31.0058 33.39C30.8324 33.6233 30.5858 33.8 30.2658 33.92C29.9458 34.04 29.5658 34.1 29.1258 34.1C28.7524 34.1 28.4291 34.07 28.1558 34.01C27.8891 33.95 27.6524 33.8667 27.4458 33.76V32.96C27.6591 33.0667 27.9158 33.1667 28.2158 33.26C28.5224 33.3467 28.8324 33.39 29.1458 33.39C29.5924 33.39 29.9158 33.32 30.1158 33.18C30.3158 33.0333 30.4158 32.84 30.4158 32.6C30.4158 32.4667 30.3791 32.3467 30.3058 32.24C30.2324 32.1333 30.0991 32.0267 29.9058 31.92C29.7191 31.8133 29.4491 31.6933 29.0958 31.56C28.7491 31.4267 28.4524 31.2933 28.2058 31.16C27.9591 31.0267 27.7691 30.8667 27.6358 30.68C27.5024 30.4933 27.4358 30.2533 27.4358 29.96C27.4358 29.5067 27.6191 29.1567 27.9858 28.91C28.3591 28.6633 28.8458 28.54 29.4458 28.54C29.7724 28.54 30.0758 28.5733 30.3558 28.64C30.6424 28.7 30.9091 28.7867 31.1558 28.9L30.8558 29.6C30.7091 29.5333 30.5524 29.4767 30.3858 29.43C30.2258 29.3767 30.0624 29.3367 29.8958 29.31C29.7291 29.2767 29.5591 29.26 29.3858 29.26C29.0258 29.26 28.7491 29.32 28.5558 29.44C28.3691 29.5533 28.2758 29.71 28.2758 29.91C28.2758 30.0567 28.3191 30.1833 28.4058 30.29C28.4924 30.39 28.6358 30.49 28.8358 30.59C29.0424 30.6833 29.3158 30.7967 29.6558 30.93C29.9958 31.0567 30.2858 31.1867 30.5258 31.32C30.7658 31.4533 30.9491 31.6167 31.0758 31.81C31.2024 31.9967 31.2658 32.2333 31.2658 32.52ZM38.1386 27.55C37.7586 27.55 37.4153 27.6167 37.1086 27.75C36.8019 27.8767 36.5419 28.0667 36.3286 28.32C36.1153 28.5667 35.9519 28.87 35.8386 29.23C35.7253 29.5833 35.6686 29.9833 35.6686 30.43C35.6686 31.0167 35.7586 31.5267 35.9386 31.96C36.1253 32.3933 36.3986 32.7267 36.7586 32.96C37.1253 33.1933 37.5819 33.31 38.1286 33.31C38.4419 33.31 38.7386 33.2833 39.0186 33.23C39.2986 33.1767 39.5719 33.11 39.8386 33.03V33.81C39.5719 33.91 39.2953 33.9833 39.0086 34.03C38.7286 34.0767 38.3919 34.1 37.9986 34.1C37.2719 34.1 36.6653 33.95 36.1786 33.65C35.6919 33.35 35.3253 32.9233 35.0786 32.37C34.8386 31.8167 34.7186 31.1667 34.7186 30.42C34.7186 29.88 34.7919 29.3867 34.9386 28.94C35.0919 28.4933 35.3119 28.1067 35.5986 27.78C35.8919 27.4533 36.2519 27.2033 36.6786 27.03C37.1053 26.85 37.5953 26.76 38.1486 26.76C38.5153 26.76 38.8686 26.7967 39.2086 26.87C39.5486 26.9433 39.8519 27.0467 40.1186 27.18L39.7586 27.94C39.5386 27.84 39.2919 27.75 39.0186 27.67C38.7519 27.59 38.4586 27.55 38.1386 27.55ZM45.837 31.31C45.837 31.7567 45.777 32.1533 45.657 32.5C45.5436 32.84 45.377 33.13 45.157 33.37C44.9436 33.61 44.6803 33.7933 44.367 33.92C44.0603 34.04 43.717 34.1 43.337 34.1C42.9836 34.1 42.657 34.04 42.357 33.92C42.057 33.7933 41.797 33.61 41.577 33.37C41.357 33.13 41.1836 32.84 41.057 32.5C40.937 32.1533 40.877 31.7567 40.877 31.31C40.877 30.7167 40.977 30.2167 41.177 29.81C41.377 29.3967 41.6636 29.0833 42.037 28.87C42.4103 28.65 42.8536 28.54 43.367 28.54C43.8536 28.54 44.2803 28.65 44.647 28.87C45.0203 29.0833 45.3103 29.3967 45.517 29.81C45.7303 30.2167 45.837 30.7167 45.837 31.31ZM41.787 31.31C41.787 31.73 41.8403 32.0967 41.947 32.41C42.0603 32.7167 42.2336 32.9533 42.467 33.12C42.7003 33.2867 42.997 33.37 43.357 33.37C43.717 33.37 44.0136 33.2867 44.247 33.12C44.4803 32.9533 44.6503 32.7167 44.757 32.41C44.8703 32.0967 44.927 31.73 44.927 31.31C44.927 30.8833 44.8703 30.52 44.757 30.22C44.6436 29.92 44.4703 29.69 44.237 29.53C44.0103 29.3633 43.7136 29.28 43.347 29.28C42.8003 29.28 42.4036 29.46 42.157 29.82C41.9103 30.18 41.787 30.6767 41.787 31.31ZM49.7116 28.54C50.3516 28.54 50.835 28.6967 51.1616 29.01C51.4883 29.3167 51.6516 29.8167 51.6516 30.51V34H50.7816V30.57C50.7816 30.1367 50.685 29.8133 50.4916 29.6C50.2983 29.3867 49.995 29.28 49.5816 29.28C48.9883 29.28 48.5783 29.4467 48.3516 29.78C48.125 30.1133 48.0116 30.5933 48.0116 31.22V34H47.1316V28.64H47.8416L47.9716 29.37H48.0216C48.1416 29.1833 48.2883 29.03 48.4616 28.91C48.6416 28.7833 48.8383 28.69 49.0516 28.63C49.265 28.57 49.485 28.54 49.7116 28.54ZM55.0033 33.38C55.1366 33.38 55.2733 33.37 55.4133 33.35C55.5533 33.3233 55.6666 33.2967 55.7533 33.27V33.94C55.6599 33.9867 55.5266 34.0233 55.3533 34.05C55.1799 34.0833 55.0133 34.1 54.8533 34.1C54.5733 34.1 54.3133 34.0533 54.0733 33.96C53.8399 33.86 53.6499 33.69 53.5033 33.45C53.3566 33.21 53.2833 32.8733 53.2833 32.44V29.32H52.5233V28.9L53.2933 28.55L53.6433 27.41H54.1633V28.64H55.7133V29.32H54.1633V32.42C54.1633 32.7467 54.2399 32.99 54.3933 33.15C54.5533 33.3033 54.7566 33.38 55.0033 33.38ZM59.2266 28.54C59.3266 28.54 59.4332 28.5467 59.5466 28.56C59.6666 28.5667 59.7699 28.58 59.8566 28.6L59.7466 29.41C59.6599 29.39 59.5632 29.3733 59.4566 29.36C59.3566 29.3467 59.2599 29.34 59.1666 29.34C58.9599 29.34 58.7632 29.3833 58.5766 29.47C58.3899 29.5567 58.2232 29.68 58.0766 29.84C57.9299 29.9933 57.8132 30.18 57.7266 30.4C57.6466 30.62 57.6066 30.8667 57.6066 31.14V34H56.7266V28.64H57.4466L57.5466 29.62H57.5866C57.6999 29.42 57.8366 29.24 57.9966 29.08C58.1566 28.9133 58.3399 28.7833 58.5466 28.69C58.7532 28.59 58.9799 28.54 59.2266 28.54ZM65.2221 31.31C65.2221 31.7567 65.1621 32.1533 65.0421 32.5C64.9288 32.84 64.7621 33.13 64.5421 33.37C64.3288 33.61 64.0654 33.7933 63.7521 33.92C63.4454 34.04 63.1021 34.1 62.7221 34.1C62.3688 34.1 62.0421 34.04 61.7421 33.92C61.4421 33.7933 61.1821 33.61 60.9621 33.37C60.7421 33.13 60.5688 32.84 60.4421 32.5C60.3221 32.1533 60.2621 31.7567 60.2621 31.31C60.2621 30.7167 60.3621 30.2167 60.5621 29.81C60.7621 29.3967 61.0488 29.0833 61.4221 28.87C61.7954 28.65 62.2388 28.54 62.7521 28.54C63.2388 28.54 63.6654 28.65 64.0321 28.87C64.4054 29.0833 64.6954 29.3967 64.9021 29.81C65.1154 30.2167 65.2221 30.7167 65.2221 31.31ZM61.1721 31.31C61.1721 31.73 61.2254 32.0967 61.3321 32.41C61.4454 32.7167 61.6188 32.9533 61.8521 33.12C62.0854 33.2867 62.3821 33.37 62.7421 33.37C63.1021 33.37 63.3988 33.2867 63.6321 33.12C63.8654 32.9533 64.0354 32.7167 64.1421 32.41C64.2554 32.0967 64.3121 31.73 64.3121 31.31C64.3121 30.8833 64.2554 30.52 64.1421 30.22C64.0288 29.92 63.8554 29.69 63.6221 29.53C63.3954 29.3633 63.0988 29.28 62.7321 29.28C62.1854 29.28 61.7888 29.46 61.5421 29.82C61.2954 30.18 61.1721 30.6767 61.1721 31.31ZM67.3968 34H66.5168V26.4H67.3968V34ZM75.6626 32.09C75.6626 32.5167 75.5592 32.88 75.3526 33.18C75.1459 33.4733 74.8492 33.7 74.4626 33.86C74.0826 34.02 73.6326 34.1 73.1126 34.1C72.8459 34.1 72.5892 34.0867 72.3426 34.06C72.1026 34.0333 71.8826 33.9967 71.6826 33.95C71.4826 33.8967 71.3059 33.8333 71.1526 33.76V32.9C71.3926 33.0067 71.6892 33.1033 72.0426 33.19C72.4026 33.2767 72.7726 33.32 73.1526 33.32C73.5059 33.32 73.8026 33.2733 74.0426 33.18C74.2826 33.0867 74.4626 32.9533 74.5826 32.78C74.7026 32.6067 74.7626 32.4033 74.7626 32.17C74.7626 31.9367 74.7126 31.74 74.6126 31.58C74.5126 31.42 74.3392 31.2733 74.0926 31.14C73.8526 31 73.5159 30.8533 73.0826 30.7C72.7759 30.5867 72.5059 30.4667 72.2726 30.34C72.0459 30.2067 71.8559 30.0567 71.7026 29.89C71.5492 29.7233 71.4326 29.5333 71.3526 29.32C71.2792 29.1067 71.2426 28.86 71.2426 28.58C71.2426 28.2 71.3392 27.8767 71.5326 27.61C71.7259 27.3367 71.9926 27.1267 72.3326 26.98C72.6792 26.8333 73.0759 26.76 73.5226 26.76C73.9159 26.76 74.2759 26.7967 74.6026 26.87C74.9292 26.9433 75.2259 27.04 75.4926 27.16L75.2126 27.93C74.9659 27.8233 74.6959 27.7333 74.4026 27.66C74.1159 27.5867 73.8159 27.55 73.5026 27.55C73.2026 27.55 72.9526 27.5933 72.7526 27.68C72.5526 27.7667 72.4026 27.89 72.3026 28.05C72.2026 28.2033 72.1526 28.3833 72.1526 28.59C72.1526 28.83 72.2026 29.03 72.3026 29.19C72.4026 29.35 72.5659 29.4933 72.7926 29.62C73.0192 29.7467 73.3259 29.8833 73.7126 30.03C74.1326 30.1833 74.4859 30.35 74.7726 30.53C75.0659 30.7033 75.2859 30.9133 75.4326 31.16C75.5859 31.4067 75.6626 31.7167 75.6626 32.09ZM76.0409 28.64H76.9809L78.1409 31.69C78.2075 31.87 78.2675 32.0433 78.3209 32.21C78.3809 32.3767 78.4342 32.54 78.4809 32.7C78.5275 32.8533 78.5642 33.0033 78.5909 33.15H78.6309C78.6709 32.9833 78.7342 32.7667 78.8209 32.5C78.9075 32.2267 78.9975 31.9533 79.0909 31.68L80.1809 28.64H81.1309L78.8209 34.74C78.6942 35.0733 78.5442 35.3633 78.3709 35.61C78.2042 35.8633 77.9975 36.0567 77.7509 36.19C77.5109 36.33 77.2175 36.4 76.8709 36.4C76.7109 36.4 76.5709 36.39 76.4509 36.37C76.3309 36.3567 76.2275 36.34 76.1409 36.32V35.62C76.2142 35.6333 76.3009 35.6467 76.4009 35.66C76.5075 35.6733 76.6175 35.68 76.7309 35.68C76.9375 35.68 77.1142 35.64 77.2609 35.56C77.4142 35.4867 77.5442 35.3767 77.6509 35.23C77.7575 35.09 77.8475 34.9233 77.9209 34.73L78.2009 34.02L76.0409 28.64ZM85.3685 32.52C85.3685 32.8667 85.2819 33.1567 85.1085 33.39C84.9352 33.6233 84.6885 33.8 84.3685 33.92C84.0485 34.04 83.6685 34.1 83.2285 34.1C82.8552 34.1 82.5319 34.07 82.2585 34.01C81.9919 33.95 81.7552 33.8667 81.5485 33.76V32.96C81.7619 33.0667 82.0185 33.1667 82.3185 33.26C82.6252 33.3467 82.9352 33.39 83.2485 33.39C83.6952 33.39 84.0185 33.32 84.2185 33.18C84.4185 33.0333 84.5185 32.84 84.5185 32.6C84.5185 32.4667 84.4819 32.3467 84.4085 32.24C84.3352 32.1333 84.2019 32.0267 84.0085 31.92C83.8219 31.8133 83.5519 31.6933 83.1985 31.56C82.8519 31.4267 82.5552 31.2933 82.3085 31.16C82.0619 31.0267 81.8719 30.8667 81.7385 30.68C81.6052 30.4933 81.5385 30.2533 81.5385 29.96C81.5385 29.5067 81.7219 29.1567 82.0885 28.91C82.4619 28.6633 82.9485 28.54 83.5485 28.54C83.8752 28.54 84.1785 28.5733 84.4585 28.64C84.7452 28.7 85.0119 28.7867 85.2585 28.9L84.9585 29.6C84.8119 29.5333 84.6552 29.4767 84.4885 29.43C84.3285 29.3767 84.1652 29.3367 83.9985 29.31C83.8319 29.2767 83.6619 29.26 83.4885 29.26C83.1285 29.26 82.8519 29.32 82.6585 29.44C82.4719 29.5533 82.3785 29.71 82.3785 29.91C82.3785 30.0567 82.4219 30.1833 82.5085 30.29C82.5952 30.39 82.7385 30.49 82.9385 30.59C83.1452 30.6833 83.4185 30.7967 83.7585 30.93C84.0985 31.0567 84.3885 31.1867 84.6285 31.32C84.8685 31.4533 85.0519 31.6167 85.1785 31.81C85.3052 31.9967 85.3685 32.2333 85.3685 32.52ZM88.3537 33.38C88.487 33.38 88.6237 33.37 88.7637 33.35C88.9037 33.3233 89.017 33.2967 89.1037 33.27V33.94C89.0103 33.9867 88.877 34.0233 88.7037 34.05C88.5303 34.0833 88.3637 34.1 88.2037 34.1C87.9237 34.1 87.6637 34.0533 87.4237 33.96C87.1903 33.86 87.0003 33.69 86.8537 33.45C86.707 33.21 86.6337 32.8733 86.6337 32.44V29.32H85.8737V28.9L86.6437 28.55L86.9937 27.41H87.5137V28.64H89.0637V29.32H87.5137V32.42C87.5137 32.7467 87.5903 32.99 87.7437 33.15C87.9037 33.3033 88.107 33.38 88.3537 33.38ZM92.147 28.54C92.607 28.54 93.0003 28.64 93.327 28.84C93.6603 29.04 93.9136 29.3233 94.087 29.69C94.267 30.05 94.357 30.4733 94.357 30.96V31.49H90.687C90.7003 32.0967 90.8536 32.56 91.147 32.88C91.447 33.1933 91.8636 33.35 92.397 33.35C92.737 33.35 93.037 33.32 93.297 33.26C93.5636 33.1933 93.837 33.1 94.117 32.98V33.75C93.8436 33.87 93.5736 33.9567 93.307 34.01C93.0403 34.07 92.7236 34.1 92.357 34.1C91.8503 34.1 91.4003 33.9967 91.007 33.79C90.6203 33.5833 90.317 33.2767 90.097 32.87C89.8836 32.4567 89.777 31.9533 89.777 31.36C89.777 30.7733 89.8736 30.27 90.067 29.85C90.267 29.43 90.5436 29.1067 90.897 28.88C91.257 28.6533 91.6736 28.54 92.147 28.54ZM92.137 29.26C91.717 29.26 91.3836 29.3967 91.137 29.67C90.897 29.9367 90.7536 30.31 90.707 30.79H93.437C93.437 30.4833 93.3903 30.2167 93.297 29.99C93.2036 29.7633 93.0603 29.5867 92.867 29.46C92.6803 29.3267 92.437 29.26 92.137 29.26ZM101.501 28.54C102.108 28.54 102.561 28.6967 102.861 29.01C103.161 29.3167 103.311 29.8167 103.311 30.51V34H102.441V30.55C102.441 30.13 102.351 29.8133 102.171 29.6C101.998 29.3867 101.725 29.28 101.351 29.28C100.831 29.28 100.458 29.43 100.231 29.73C100.011 30.03 99.9015 30.4667 99.9015 31.04V34H99.0315V30.55C99.0315 30.27 98.9915 30.0367 98.9115 29.85C98.8315 29.6567 98.7115 29.5133 98.5515 29.42C98.3915 29.3267 98.1848 29.28 97.9315 29.28C97.5715 29.28 97.2882 29.3567 97.0815 29.51C96.8748 29.6567 96.7248 29.8733 96.6315 30.16C96.5448 30.4467 96.5015 30.8 96.5015 31.22V34H95.6215V28.64H96.3315L96.4615 29.37H96.5115C96.6248 29.1833 96.7615 29.03 96.9215 28.91C97.0882 28.7833 97.2715 28.69 97.4715 28.63C97.6715 28.57 97.8782 28.54 98.0915 28.54C98.5048 28.54 98.8482 28.6133 99.1215 28.76C99.4015 28.9067 99.6048 29.1333 99.7315 29.44H99.7815C99.9615 29.1333 100.205 28.9067 100.511 28.76C100.825 28.6133 101.155 28.54 101.501 28.54Z" fill="#DAD8A0"/>
</svg>
